<?xml version="1.0" encoding="UTF-8" standalone="no"?>
<!DOCTYPE svg PUBLIC "-//W3C//DTD SVG 1.1//EN" "http://www.w3.org/Graphics/SVG/1.1/DTD/svg11.dtd">
<svg width="100%" height="100%" viewBox="100 130 415 400" version="1.1" xmlns="http://www.w3.org/2000/svg" xmlns:xlink="http://www.w3.org/1999/xlink" xml:space="preserve" xmlns:serif="http://www.serif.com/" style="fill-rule:evenodd;clip-rule:evenodd;stroke-linejoin:round;stroke-miterlimit:2;">
    <style>
      g,path { fill: black; stroke: black; }
      @media (prefers-color-scheme: dark) {
        g,path { fill: white; stroke: white; }
      }
    </style>
    <g transform="matrix(0.1,0,0,-0.1,0,620)">
        <g transform="matrix(1,4.90521e-18,4.90521e-18,1.04005,-2.01726e-14,-198.253)">
            <path d="M2473.53,4051.55C2473.53,4051.55 2600.75,4166.18 2741.46,4227.5C2846.24,4273.17 2942.35,4304.97 3059.48,4322.92C3429.48,4380.92 3546.26,4338.2 3625.26,4290.2C3712.26,4238.2 3733,4094 3712,3971C3682,3801 3542,3558 3360,3358C3322,3316 3290,3263 3290,3263C3290,3263 3361,3029 3413,2910C3472,2771 3505,2666 3536,2512C3586,2263 3559,1962 3482,1921C3473,1916 3438,1909 3405,1905C3347,1897 3346,1898 3364,1916C3423,1974 3450,2148 3432,2339C3411,2548 3355.13,2655.67 3276.9,2884.81C3246.9,2953.81 3187.25,3150.3 3187.25,3150.3C3187.25,3150.3 2136.99,2002.23 2081.43,1947.95C1995.43,1862.95 1857.03,1900.28 1857.03,1900.28C1824.03,1895.28 1857.03,1900.28 1857.03,1900.28C1851.03,1907.28 3153,3262 3153,3262L3132,3354C3120,3404 3105,3470 3099,3500L3071.18,3615.85L2993.37,3380.75C2919.37,3112.75 2903.3,3047.31 2834.3,3036.31C2810.3,3032.31 2776,3037 2776,3037C2776,3037 3001.09,3741.67 3020.09,3974.67C3025.09,4047.67 3072.56,4068.51 3090.56,4074.51C3094.56,3873.51 3252.71,3377.12 3252.71,3377.12C3252.71,3377.12 3407,3559 3479,3685C3571,3846 3626.99,4012.91 3589.99,4116.91C3571.99,4168.91 3529.17,4227.39 3474.36,4243.92C3388.77,4269.72 3176.35,4284.24 3022.5,4244.22C2993.33,4236.62 2891.47,4214.31 2789.93,4174.56C2689.18,4135.11 2588.84,4078.32 2536.99,4046.05C2530.84,4042.23 2473.53,4051.55 2473.53,4051.55Z" style="fill-rule:nonzero;"/>
        </g>
        <g transform="matrix(-0.114008,10.4887,11.2032,0.121774,-540.023,-563.825)">
            <path d="M326.235,144.659C428.867,144.659 512.191,225.641 512.191,325.388C512.191,425.135 428.867,506.116 326.235,506.116C223.603,506.116 140.279,425.135 140.279,325.388C140.279,225.641 223.603,144.659 326.235,144.659ZM326.235,170.967C413.927,170.967 485.122,240.161 485.122,325.388C485.122,410.615 413.927,479.808 326.235,479.808C238.543,479.808 167.348,410.615 167.348,325.388C167.348,240.161 238.543,170.967 326.235,170.967Z"/>
        </g>
    </g>
</svg>
